<svg xmlns="http://www.w3.org/2000/svg" viewBox="0 0 360 290" width="360" height="290" font-family="'Amazon Ember','Helvetica Neue',Roboto,Arial,sans-serif" role="img" aria-label="Throughput de rede da Primary em 21/07/2026">
<title>Throughput de rede da Primary em 21/07/2026</title>
<style>
.ln{stroke-dasharray:1;stroke-dashoffset:1;animation:draw 8s ease-in-out infinite}
@keyframes draw{0%{stroke-dashoffset:1}30%{stroke-dashoffset:0}90%{stroke-dashoffset:0;opacity:1}100%{stroke-dashoffset:0;opacity:0}}
.ar{animation:area 8s ease-in-out infinite}
@keyframes area{0%,12%{opacity:0}35%{opacity:1}90%{opacity:1}100%{opacity:0}}
.pk{animation:pk 8s ease-in-out infinite}
@keyframes pk{0%,30%{opacity:0;transform:translateY(4px)}40%{opacity:1;transform:none}90%{opacity:1}100%{opacity:0}}
</style>
<rect x="0.5" y="0.5" width="359" height="289" rx="12" fill="#0d1117" stroke="#30363d"/>
<text x="14" y="28" font-size="14.5" fill="#e6edf3">Network throughput (Bytes per second)</text><g fill="#9da7b3"><circle cx="340" cy="15" r="1.6"/><circle cx="340" cy="21" r="1.6"/><circle cx="340" cy="27" r="1.6"/></g>
<line x1="50" x2="330" y1="206" y2="206" stroke="#21262d"/><text x="44" y="210" font-size="10.5" font-weight="700" fill="#e6edf3" text-anchor="end">0</text>
<line x1="50" x2="330" y1="131" y2="131" stroke="#21262d"/><text x="44" y="135" font-size="10.5" font-weight="700" fill="#e6edf3" text-anchor="end">171.8M</text>
<line x1="50" x2="330" y1="56" y2="56" stroke="#21262d"/><text x="44" y="60" font-size="10.5" font-weight="700" fill="#e6edf3" text-anchor="end">343.6M</text>
<line x1="50" x2="330" y1="206" y2="206" stroke="#9da7b3"/>
<line x1="50" x2="50" y1="206" y2="210" stroke="#9da7b3"/><text x="50" y="224" font-size="10.5" fill="#e6edf3" text-anchor="middle">Jul 21</text><text x="50" y="237" font-size="10.5" fill="#e6edf3" text-anchor="middle">11:59:00</text>
<line x1="143.3" x2="143.3" y1="206" y2="210" stroke="#9da7b3"/><text x="143.3" y="224" font-size="10.5" fill="#e6edf3" text-anchor="middle">Jul 21</text><text x="143.3" y="237" font-size="10.5" fill="#e6edf3" text-anchor="middle">12:00:00</text>
<line x1="236.7" x2="236.7" y1="206" y2="210" stroke="#9da7b3"/><text x="236.7" y="224" font-size="10.5" fill="#e6edf3" text-anchor="middle">Jul 21</text><text x="236.7" y="237" font-size="10.5" fill="#e6edf3" text-anchor="middle">12:01:00</text>
<line x1="330" x2="330" y1="206" y2="210" stroke="#9da7b3"/><text x="330" y="224" font-size="10.5" fill="#e6edf3" text-anchor="middle">Jul 21</text><text x="330" y="237" font-size="10.5" fill="#e6edf3" text-anchor="middle">12:02:00</text>
<polygon class="ar" points="50,173.3 73.3,164.5 96.7,153.6 120,155.8 143.3,154.5 166.7,94.7 190,96.9 213.3,116.5 236.7,134 260,140.5 283.3,149.2 306.7,153.6 330,162.3 330,206 50,206" fill="#1f3b57"/>
<polyline class="ln" pathLength="1" points="50,173.3 73.3,164.5 96.7,153.6 120,155.8 143.3,154.5 166.7,94.7 190,96.9 213.3,116.5 236.7,134 260,140.5 283.3,149.2 306.7,153.6 330,162.3" fill="none" stroke="#1f77b4" stroke-width="1.8" stroke-linejoin="round"/>
<polygon class="ar" points="50,162.3 73.3,151.4 96.7,138.3 120,140.5 143.3,138.3 166.7,56 190,57.6 213.3,81.6 236.7,107.8 260,116.5 283.3,128.3 306.7,136.2 330,147.1 330,162.3 306.7,153.6 283.3,149.2 260,140.5 236.7,134 213.3,116.5 190,96.9 166.7,94.7 143.3,154.5 120,155.8 96.7,153.6 73.3,164.5 50,173.3" fill="#5a3a1c"/>
<polyline class="ln" pathLength="1" points="50,162.3 73.3,151.4 96.7,138.3 120,140.5 143.3,138.3 166.7,56 190,57.6 213.3,81.6 236.7,107.8 260,116.5 283.3,128.3 306.7,136.2 330,147.1" fill="none" stroke="#ff7f0e" stroke-width="1.8" stroke-linejoin="round"/>
<g class="pk"><circle cx="166.7" cy="56" r="3.5" fill="#161b22" stroke="#ff7b72" stroke-width="1.6"/><text x="166.7" y="48" font-size="10.5" font-weight="700" fill="#ff7b72" text-anchor="middle">343.6 MB/s</text></g>
<circle cx="22" cy="260" r="6" fill="#1f77b4"/><text x="32" y="264" font-size="11.5" fill="#e6edf3">network.tx.avg</text>
<circle cx="172" cy="260" r="6" fill="#ff7f0e"/><text x="182" y="264" font-size="11.5" fill="#e6edf3">network.rx.avg</text>
</svg>
